<svg width="225" height="114" viewBox="0 0 225 114" fill="none" xmlns="http://www.w3.org/2000/svg">
<path d="M9.375 75.75H150V103.875C150 107.513 152.1 110.813 155.4 112.369C156.656 112.95 158.025 113.25 159.375 113.25C161.531 113.25 163.669 112.519 165.375 111.075L221.625 64.2C223.781 62.4188 225 59.775 225 57C225 54.225 223.781 51.5813 221.625 49.8L165.375 2.92501C162.581 0.600008 158.681 0.0937533 155.4 1.63125C152.1 3.16875 150 6.4875 150 10.125V38.25H9.375C4.2 38.25 0 42.45 0 47.625V66.375C0 71.55 4.2 75.75 9.375 75.75Z" fill="#B3803A"/>
</svg>
